# xmcd
# 
# Track frame offsets:
#	150
#	15090
#	26913
#	40573
#	57501
#	70318
#	86580
#	102951
#	118188
#	134575
#	149130
#	164002
#
# Disc length: 2339 seconds
#
# Revision: 1
# Processed by: cddbd v1.4PL0 Copyright (c) Steve Scherf et al.
# Submitted via: Audio-CD-Archiv 2.10.438
#
DISCID=ae09210c
DTITLE=Cat Stevens - Cat Stevens Greatest Hits
DYEAR=1900
DGENRE=blues
TTITLE0=Wild World
TTITLE1=Oh Very Young
TTITLE2=can't Keep It In
TTITLE3=Hard Headed Woman
TTITLE4=Moonshadow
TTITLE5=Two Fine People
TTITLE6=Peace Train
TTITLE7=Ready
TTITLE8=Father and Son
TTITLE9=Sitting
TTITLE10=Morning Has Broken
TTITLE11=Another Saturday Night
EXTD=
EXTT0=
EXTT1=
EXTT2=
EXTT3=
EXTT4=
EXTT5=
EXTT6=
EXTT7=
EXTT8=
EXTT9=
EXTT10=
EXTT11=
PLAYORDER=
